<svg id="Layer_1" data-name="Layer 1" xmlns="http://www.w3.org/2000/svg" viewBox="0 0 3072 1840.64"><title>aladinko</title><path d="M633.58,758.31l-27.64-33,39.58,17c122.18,52.36,254.38,63.1,343.67,62.87,97.14-.24,166.15-13.12,166.83-13.25l5.34-1L1247,876.54l29.74-22-112-102.84S792.29,813.41,550,662.59c0,0,121.12,267.38,306.23,342.79l60.22-2.12C768.53,918.32,639.62,765.54,633.58,758.31Z" transform="translate(-348 -24.68)" style="fill:#c0c7e1"/><path d="M1154.45,813c-18.23,3.08-80.36,12.41-164.74,12.65-81.66.25-198.43-8.51-311.94-48.77,50.88,54.93,163.12,167.15,279.68,224.89l126.21-4.44,146.65-108.47Z" transform="translate(-348 -24.68)" style="fill:#c0c7e1"/><path d="M1989.77,751.71S1519,1174.49,1178.5,1099.07c0,0,521,150.83,850.12-313.08" transform="translate(-348 -24.68)" style="fill:#2090c0"/><path d="M3035.27,600.74q-15.78-.73-31.56-1.18-66.17-1.83-132.24,1.38c-87.95,4.39-175.55,15.54-260.57,36.29s-167.43,51.29-241.4,95.57a611.74,611.74,0,0,0-102.76,76.67,530.66,530.66,0,0,0-82,96.76L2153,954.34l-12.59-57.93-.78-3.58-.9-3.92-2-7.94q-2-8-4.35-16-4.59-16-10-31.79-10.77-31.6-24.3-62.18a704.88,704.88,0,0,0-64.59-115.84,577.14,577.14,0,0,0-85.78-98.7,486.88,486.88,0,0,0-226.24-117c-6.25-1.38-12.54-2.6-18.85-3.76-89.43,49.8-178.24,116.28-264.84,202.88,0,0,539.32-518.76,614.74,555.32,0,0,365.64-596.46,1106.07-500.47C3158.69,693.44,3113.67,654.17,3035.27,600.74Z" transform="translate(-348 -24.68)" style="fill:#c0c7e1"/><path d="M1868.65,582.6S1647,335.79,1320.19,776.85c0,0-217.1,269.66-505,208C815.14,984.81,1363.61,1307,1868.65,582.6Z" transform="translate(-348 -24.68)" style="fill:#2090c0"/><path d="M3092.41,661.44s180.54,11.43,162.25,45.71S3241,686.58,3227.24,730s-41.13-20.57-32,22.85-25.14-22.85-16,18.28-13.71-27.42-13.71,16-13.71-18.28-13.71,9.14-34.28,13.71-75.41-123.4" transform="translate(-348 -24.68)" style="fill:#c0c7e1"/><path d="M2069.41,1144s-79.14,162.67-40.31,163.68-11.12-22.07,33.41-12.58,2.41-45.93,35.66-16.55-7.47-33.14,23.79-4.89-17.09-25.46,20.68-4-9.14-20.95,14.72-7.42,28.84-23-70.12-126.49" transform="translate(-348 -24.68)" style="fill:#c0c7e1"/><path d="M1168.76,758s-3.12-120.31-26.36-109,13.33,9.63-15.87,17.67,12.65,27.86-16,20.7,14.57,17.28-12.55,10.18,17.89,9.8-11,8.72,11.81,9.57-6.42,8.89-10,22.45,80.17,53.19" transform="translate(-348 -24.68)" style="fill:#c0c7e1"/><path d="M561.7,682.25S492.23,584,517.61,579.13s-4.93,15.69,23.29,4.66,6.53,29.89,25.2,7-1.34,22.56,16.15.65-8.48,18.55,14,.42-3.74,14.74,10.46,3.28,21.42,12-32.42,90.59" transform="translate(-348 -24.68)" style="fill:#c0c7e1"/><path d="M2229.68,422a43.62,43.62,0,0,1-6,14.25,35.81,35.81,0,0,1-4.81,5.95c-.86,1-1.89,1.76-2.82,2.68l-1.53,1.23a17.32,17.32,0,0,1-1.58,1.2,109,109,0,0,1-14.27,8.47,38.67,38.67,0,0,0,17-4,37.73,37.73,0,0,0,3.92-2.22,37.06,37.06,0,0,0,3.62-2.77,38.77,38.77,0,0,0,3.28-3.22,41.29,41.29,0,0,0,2.78-3.68,35.63,35.63,0,0,0,2.27-34.3A78,78,0,0,1,2229.68,422Z" transform="translate(-348 -24.68)" style="fill:#2090c0"/><path d="M2396.28,434.94a47.55,47.55,0,0,1-6.5,15.53,39,39,0,0,1-5.25,6.49c-.93,1.06-2.06,1.92-3.08,2.92l-1.67,1.34a18.9,18.9,0,0,1-1.72,1.31,118.84,118.84,0,0,1-15.55,9.24A42.16,42.16,0,0,0,2381,467.4a41.1,41.1,0,0,0,4.28-2.42,40.42,40.42,0,0,0,3.95-3,42.3,42.3,0,0,0,3.57-3.51,45,45,0,0,0,3-4,38.84,38.84,0,0,0,2.48-37.39A85,85,0,0,1,2396.28,434.94Z" transform="translate(-348 -24.68)" style="fill:#2090c0"/><path d="M2629.6,452.27a71.65,71.65,0,0,1-9.79,23.4,58.83,58.83,0,0,1-7.91,9.77c-1.4,1.59-3.1,2.9-4.64,4.4l-2.52,2a28.44,28.44,0,0,1-2.59,2c-7,5.19-15,9.51-23.44,13.92a63.53,63.53,0,0,0,27.86-6.58,62,62,0,0,0,6.44-3.65A60.89,60.89,0,0,0,2619,493a63.73,63.73,0,0,0,5.39-5.29,67.85,67.85,0,0,0,4.56-6.05,57,57,0,0,0,9.15-28.22c.46-9.79-1.12-19.59-5.41-28.14A128.09,128.09,0,0,1,2629.6,452.27Z" transform="translate(-348 -24.68)" style="fill:#2090c0"/><path d="M1806.54,385.27a552.09,552.09,0,0,1,70.33,33.86,562.32,562.32,0,0,1,116.85,89.1,640.84,640.84,0,0,1,90.56,113.5,762.61,762.61,0,0,1,64.54,128.2q13.06,33.31,23.17,67.62,2.86,9.74,5.44,19.57a581.07,581.07,0,0,1,60.87-59.74,651.57,651.57,0,0,1,113.08-76.56,805.83,805.83,0,0,1,124.31-53.44,1025.09,1025.09,0,0,1,130-34.09c87.74-17.16,176.79-24.27,265.51-24.61q66.56-.2,132.87,4.75,11.66.87,23.3,1.91C2798.11,440.81,2302.1,178.48,1806.54,385.27Zm418.84,68.48A38.71,38.71,0,1,1,2235.8,400,38.71,38.71,0,0,1,2225.38,453.75Zm166.21,15.83A42.2,42.2,0,1,1,2403,411,42.2,42.2,0,0,1,2391.6,469.58Zm230.94,34.9a63.59,63.59,0,1,1,17.11-88.29A63.59,63.59,0,0,1,2622.54,504.48Z" transform="translate(-348 -24.68)" style="fill:#2090c0"/><path d="M2712.62,337.71a38.71,38.71,0,1,0-53.74-10.42A38.71,38.71,0,0,0,2712.62,337.71Zm-12.41-6.47a17.32,17.32,0,0,0,1.58-1.2l1.53-1.23c.94-.91,2-1.71,2.82-2.68a35.81,35.81,0,0,0,4.81-5.95,43.61,43.61,0,0,0,6-14.25,78,78,0,0,0,1.86-16.41,35.63,35.63,0,0,1-2.27,34.3,41.28,41.28,0,0,1-2.78,3.68,38.79,38.79,0,0,1-3.28,3.22,37.09,37.09,0,0,1-3.62,2.77,37.72,37.72,0,0,1-3.92,2.22,38.67,38.67,0,0,1-17,4A109,109,0,0,0,2700.21,331.24Z" transform="translate(-348 -24.68)" style="fill:#c0c7e1"/><path d="M2508.85,334.91a33.18,33.18,0,1,0-46.06-8.93A33.18,33.18,0,0,0,2508.85,334.91Zm-10.64-5.55a14.84,14.84,0,0,0,1.35-1l1.31-1.06c.8-.78,1.69-1.46,2.42-2.29a30.7,30.7,0,0,0,4.12-5.1,37.38,37.38,0,0,0,5.11-12.21,66.82,66.82,0,0,0,1.59-14.07,30.54,30.54,0,0,1-1.95,29.4,35.39,35.39,0,0,1-2.38,3.16,33.21,33.21,0,0,1-2.81,2.76,31.77,31.77,0,0,1-3.1,2.37,32.33,32.33,0,0,1-3.36,1.9,33.15,33.15,0,0,1-14.54,3.43A93.43,93.43,0,0,0,2498.22,329.36Z" transform="translate(-348 -24.68)" style="fill:#c0c7e1"/><path d="M2969.57,156.84A63.59,63.59,0,1,0,3057.86,174,63.59,63.59,0,0,0,2969.57,156.84Zm86.7,54.37a57,57,0,0,1-9.15,28.22,67.84,67.84,0,0,1-4.56,6.05,63.72,63.72,0,0,1-5.39,5.29,60.9,60.9,0,0,1-5.95,4.55,62,62,0,0,1-6.44,3.65,63.53,63.53,0,0,1-27.86,6.58c8.42-4.41,16.4-8.72,23.44-13.92a28.44,28.44,0,0,0,2.59-2l2.52-2c1.54-1.5,3.23-2.81,4.64-4.4a58.83,58.83,0,0,0,7.91-9.77,71.65,71.65,0,0,0,9.79-23.4,128.09,128.09,0,0,0,3.05-27C3055.14,191.61,3056.73,201.42,3056.27,211.2Z" transform="translate(-348 -24.68)" style="fill:#c0c7e1"/><path d="M2762.57,157.4a42.2,42.2,0,1,0,58.58,11.36A42.2,42.2,0,0,0,2762.57,157.4Zm57.53,36.07A37.83,37.83,0,0,1,2814,212.2a45,45,0,0,1-3,4,42.28,42.28,0,0,1-3.57,3.51,40.41,40.41,0,0,1-3.95,3,41.12,41.12,0,0,1-4.28,2.42,42.16,42.16,0,0,1-18.49,4.36,118.83,118.83,0,0,0,15.55-9.24A18.87,18.87,0,0,0,2798,219l1.67-1.34c1-1,2.14-1.86,3.08-2.92a39,39,0,0,0,5.25-6.49,47.55,47.55,0,0,0,6.5-15.53,85,85,0,0,0,2-17.89A37.69,37.69,0,0,1,2820.1,193.48Z" transform="translate(-348 -24.68)" style="fill:#c0c7e1"/><path d="M3087.5,31.31a38.71,38.71,0,1,0,53.74,10.42A38.71,38.71,0,0,0,3087.5,31.31Zm52.77,33.09a34.7,34.7,0,0,1-5.57,17.18,41.29,41.29,0,0,1-2.78,3.68,38.79,38.79,0,0,1-3.28,3.22,37.07,37.07,0,0,1-3.62,2.77,37.72,37.72,0,0,1-3.92,2.22,38.67,38.67,0,0,1-17,4A109,109,0,0,0,3118.41,89a17.31,17.31,0,0,0,1.58-1.2l1.53-1.23c.94-.91,2-1.71,2.82-2.68a35.81,35.81,0,0,0,4.81-5.95,43.62,43.62,0,0,0,6-14.25A78,78,0,0,0,3137,47.28,34.58,34.58,0,0,1,3140.27,64.4Z" transform="translate(-348 -24.68)" style="fill:#c0c7e1"/><path d="M2600.26,147.35A38.71,38.71,0,1,0,2654,157.77,38.71,38.71,0,0,0,2600.26,147.35ZM2653,180.44a34.7,34.7,0,0,1-5.57,17.18,41.29,41.29,0,0,1-2.78,3.68,38.79,38.79,0,0,1-3.28,3.22,37.07,37.07,0,0,1-3.62,2.77,37.72,37.72,0,0,1-3.92,2.22,38.67,38.67,0,0,1-17,4,109,109,0,0,0,14.27-8.47,17.31,17.31,0,0,0,1.58-1.2l1.53-1.23c.94-.91,2-1.71,2.82-2.68a35.81,35.81,0,0,0,4.81-5.95,43.62,43.62,0,0,0,6-14.25,78,78,0,0,0,1.86-16.41A34.58,34.58,0,0,1,2653,180.44Z" transform="translate(-348 -24.68)" style="fill:#c0c7e1"/><path d="M2889.92,37.68A33.18,33.18,0,1,0,2936,46.61,33.18,33.18,0,0,0,2889.92,37.68ZM2935.16,66a29.74,29.74,0,0,1-4.77,14.72,35.39,35.39,0,0,1-2.38,3.16,33.25,33.25,0,0,1-2.81,2.76,31.77,31.77,0,0,1-3.1,2.37,32.33,32.33,0,0,1-3.36,1.9,33.15,33.15,0,0,1-14.54,3.43,93.44,93.44,0,0,0,12.23-7.26,14.84,14.84,0,0,0,1.35-1l1.31-1.06c.8-.78,1.69-1.46,2.42-2.29a30.7,30.7,0,0,0,4.12-5.1,37.38,37.38,0,0,0,5.11-12.21,66.83,66.83,0,0,0,1.59-14.07A29.64,29.64,0,0,1,2935.16,66Z" transform="translate(-348 -24.68)" style="fill:#c0c7e1"/><polygon points="2561.38 981.63 2669 961.27 2563.95 941.4 2541.02 833.3 2518.63 938.88 2413.05 961.27 2521.15 984.2 2541.02 1089.25 2561.38 981.63" style="fill:#2090c0"/><polygon points="2270.11 907.46 2323.92 897.28 2271.4 887.35 2259.94 833.3 2248.74 886.09 2195.95 897.28 2250 908.75 2259.94 961.27 2270.11 907.46" style="fill:#2090c0"/><polygon points="2241.29 1146.02 2323.92 1130.38 2243.26 1115.12 2225.66 1032.12 2208.46 1113.18 2127.39 1130.38 2210.4 1147.99 2225.66 1228.65 2241.29 1146.02" style="fill:#2090c0"/><path d="M348,1766.47s1599.65,110.7,3072-238C3420,1528.46,2365.56,1940.83,348,1766.47Z" transform="translate(-348 -24.68)"/><path d="M1663.06,1737.2V1482.56h163.12q197.55,0,197.55,191.51a314.37,314.37,0,0,1-2.33,38.87q-44.52,3.67-88.16,6.94,5.75-20,5.83-45.81-.28-114.75-112.89-114.75h-78.46v173.09Q1704.8,1735,1663.06,1737.2Z" transform="translate(-348 -24.68)" style="fill:#c0c7e1"/><path d="M2064.12,1709.34V1482.56h84.38v219.21Q2106,1705.74,2064.12,1709.34Z" transform="translate(-348 -24.68)" style="fill:#c0c7e1"/><path d="M2961.65,1594.16q15.09-31.11,43.11-56.52,60.67-54.82,151-54.83,82.29,0,140,45.58-62.71,13.75-125.54,26.45c-4.77-.41-9.67-.62-14.69-.62q-39.39,0-68.5,17Q3024.25,1583.17,2961.65,1594.16Z" transform="translate(-348 -24.68)" style="fill:#c0c7e1"/><path d="M2609.35,1649v-166.2H2694v153l141.11-153h95.11l-127.93,137.84Q2705.25,1635.93,2609.35,1649Z" transform="translate(-348 -24.68)" style="fill:#c0c7e1"/><path d="M2193.06,1697.52v-214.7h28.22l209.23,189.05q-46.58,5.55-92.65,10.64l-60.14-54.34V1689Q2235.11,1693.44,2193.06,1697.52Z" transform="translate(-348 -24.68)" style="fill:#c0c7e1"/><path d="M2486.56,1665V1482.82h84.67v171.34Q2528.72,1659.8,2486.56,1665Z" transform="translate(-348 -24.68)" style="fill:#c0c7e1"/><path d="M879.54,1755.12v-272.3H964.2v272.63Q920.62,1755.42,879.54,1755.12Z" transform="translate(-348 -24.68)" style="fill:#c0c7e1"/><path d="M2277.72,1717.13v148.19h-84.67V1725.65Q2235.19,1721.57,2277.72,1717.13Z" transform="translate(-348 -24.68)" style="fill:#2090c0"/><path d="M2571.23,1682.39v182.93h-31l-174.56-157.73q46-5.19,92.44-10.82l28.5,25.75v-29.25Q2528.77,1688,2571.23,1682.39Z" transform="translate(-348 -24.68)" style="fill:#2090c0"/><path d="M2764.57,1661.32l200.37,204H2854.88L2694,1700.08v165.24h-84.67V1677.26q80.81-11,162.3-23.57Z" transform="translate(-348 -24.68)" style="fill:#2090c0"/><path d="M2148.5,1729.89v135.44h-84.38v-127.9Q2106.06,1733.83,2148.5,1729.89Z" transform="translate(-348 -24.68)" style="fill:#2090c0"/><path d="M3320.5,1551.29q46.9,51,46.92,122.78,0,81.6-60.68,136.43t-151,54.83q-90.31,0-151-55t-60.68-136.3a191.68,191.68,0,0,1,6.3-49.67q49.16-8.57,98.37-17.73-20,29-20,67.4,0,51,35.28,85.43t92,34.42q56.16,0,91.44-34.42t35.28-85.43q0-51-35.28-85.43a116.36,116.36,0,0,0-22-16.87Q3273,1561.83,3320.5,1551.29Z" transform="translate(-348 -24.68)" style="fill:#2090c0"/><path d="M1587.56,1768.78l42.58,96.28-90,.26-25.4-58.65H1322.8l-25.4,58.65h-90.31l37.63-85C1352.42,1778.09,1467.18,1774.42,1587.56,1768.78Z" transform="translate(-348 -24.68)" style="fill:#2090c0"/><path d="M964.2,1793.92H1190v71.4H879.54v-82.47q41.06.29,84.66.32Z" transform="translate(-348 -24.68)" style="fill:#2090c0"/><path d="M809.1,1782.16l36.66,82.91-90,.26-25.4-58.65H538.43L513,1865.32H422.72l41-92.68C543.35,1776.18,661.29,1780.3,809.1,1782.16Z" transform="translate(-348 -24.68)" style="fill:#2090c0"/><path d="M2016.17,1741.41q-31,123.87-190,123.91H1663.06V1765q41.93-2.21,84.66-4.74v28.79h78.46q66.47-.15,93.79-40.21Q1967.69,1745.36,2016.17,1741.41Z" transform="translate(-348 -24.68)" style="fill:#2090c0"/><path d="M1461.09,1482.82h-84.67l-119.33,269.56q36.85-.8,74.73-1.82c76.15-2.08,157.69-5,243.7-9Zm-40.07,102,62.65,145.35h-127Z" transform="translate(-348 -24.68)" style="fill:#c0c7e1"/><path d="M592.05,1482.82,475.81,1745.41c76.78,3.3,186.15,7,321,8.84l-120-271.43ZM572.3,1730.17l64.35-145.35,62.65,145.35Z" transform="translate(-348 -24.68)" style="fill:#c0c7e1"/><path d="M1977.08,1814.68a141.38,141.38,0,0,0,21.87-29.27q-159.22,11.55-335.88,18v27.69c5.7-.2,11.42-.38,17.12-.59Q1830.73,1824.93,1977.08,1814.68Z" transform="translate(-348 -24.68)" style="fill:#11467c"/><path d="M1321.6,1809.44q-44.35,0-89.62-.34l-12.18,27.51q45.05.42,89.83.47Z" transform="translate(-348 -24.68)" style="fill:#11467c"/><path d="M2148.5,1773.24q-41.53,3.75-84.38,7.2v27.75q42.42-3.39,84.38-7.2Z" transform="translate(-348 -24.68)" style="fill:#11467c"/><path d="M1526.94,1834.9q44.6-.93,88.86-2.27l-12.08-27.32q-43.82,1.27-88.65,2.17Z" transform="translate(-348 -24.68)" style="fill:#11467c"/><path d="M1190,1808.67q-150.3-1.82-310.44-8.25V1828q156.68,6.37,310.44,8.26Z" transform="translate(-348 -24.68)" style="fill:#11467c"/><path d="M816,1797.65q-171.34-8-353.6-21.85l-11.86,26.79Q494,1806,537.42,1809l1-2.34H730.34l6.36,14.7q46,2.45,91.72,4.48Z" transform="translate(-348 -24.68)" style="fill:#11467c"/><path d="M3327.75,1559.71c-23.65,7.39-51.85,15.83-84.53,25,1.44,1.27,2.87,2.56,4.25,3.91a121.14,121.14,0,0,1,16.09,19.26c31.33-9,58.24-17.13,80.74-24.26A177.86,177.86,0,0,0,3327.75,1559.71Z" transform="translate(-348 -24.68)" style="fill:#11467c"/><path d="M2790.26,1687.47q-44.81,8.15-92.79,16.15l23.49,24.13q48-8.13,92.75-16.41Z" transform="translate(-348 -24.68)" style="fill:#11467c"/><path d="M3033.85,1637.75q-42.24,9.64-89.06,19.49c-.45,5.51-.7,11.11-.7,16.82,0,3.92.14,7.78.35,11.61q44.3-9.23,84.54-18.32A123.15,123.15,0,0,1,3033.85,1637.75Z" transform="translate(-348 -24.68)" style="fill:#11467c"/><path d="M2694,1732.26V1704.2q-41.18,6.84-84.67,13.49v28c11.86-1.81,23.75-3.59,35.54-5.45Q2669.87,1736.25,2694,1732.26Z" transform="translate(-348 -24.68)" style="fill:#11467c"/><path d="M2571.23,1723.41q-78.25,11.51-163.6,22.14L2434.7,1770q69-8.77,136.53-18.67Z" transform="translate(-348 -24.68)" style="fill:#11467c"/><path d="M2277.72,1760.51q-41.59,4.44-84.67,8.57v27.77q42.57-4.07,84.67-8.55Z" transform="translate(-348 -24.68)" style="fill:#11467c"/><path d="M348,1766.47c2017.56,174.36,3072-238,3072-238C1947.65,1877.18,348,1766.47,348,1766.47Z" transform="translate(-348 -24.68)" style="fill:#2090c0"/></svg>